<?xml version="1.0" encoding="UTF-8"?>
<svg id="Layer_1" xmlns="http://www.w3.org/2000/svg" viewBox="0 0 1603.58 260.05">
  <defs>
    <style>
      .cls-1 {
        fill: #4d4d4d;
      }
    </style>
  </defs>
  <path class="cls-1" d="M149.81,10.06l25.38,78.11h82.13c14.11,0,19.98,18.06,8.56,26.35l-66.45,48.28,25.38,78.11c4.36,13.42-11,24.58-22.41,16.28l-66.45-48.28-66.45,48.28c-11.42,8.29-26.77-2.87-22.41-16.28l25.38-78.11L6.03,114.53c-11.42-8.29-5.55-26.35,8.56-26.35h82.13S122.11,10.06,122.11,10.06c4.36-13.42,23.35-13.42,27.71,0Z"/>
  <path class="cls-1" d="M482.73,10.06l25.38,78.11h82.13c14.11,0,19.98,18.06,8.56,26.35l-66.45,48.28,25.38,78.11c4.36,13.42-11,24.58-22.41,16.28l-66.45-48.28-66.45,48.28c-11.42,8.29-26.77-2.87-22.41-16.28l25.38-78.11-66.45-48.28c-11.42-8.29-5.55-26.35,8.56-26.35h82.13s25.38-78.11,25.38-78.11c4.36-13.42,23.35-13.42,27.71,0Z"/>
  <path class="cls-1" d="M1148.56,10.06l25.38,78.11h82.13c14.11,0,19.98,18.06,8.56,26.35l-66.45,48.28,25.38,78.11c4.36,13.42-11,24.58-22.41,16.28l-66.45-48.28-66.45,48.28c-11.42,8.29-26.77-2.87-22.41-16.28l25.38-78.11-66.45-48.28c-11.42-8.29-5.55-26.35,8.56-26.35h82.13s25.38-78.11,25.38-78.11c4.36-13.42,23.35-13.42,27.71,0Z"/>
  <path class="cls-1" d="M1481.47,10.06l25.38,78.11h82.13c14.11,0,19.98,18.06,8.56,26.35l-66.45,48.28,25.38,78.11c4.36,13.42-11,24.58-22.41,16.28l-66.45-48.28-66.45,48.28c-11.42,8.29-26.77-2.87-22.41-16.28l25.38-78.11-66.45-48.28c-11.42-8.29-5.55-26.35,8.56-26.35h82.13s25.38-78.11,25.38-78.11c4.36-13.42,23.35-13.42,27.71,0Z"/>
  <path class="cls-1" d="M815.64,10.06l25.38,78.11h82.13c14.11,0,19.98,18.06,8.56,26.35l-66.45,48.28,25.38,78.11c4.36,13.42-11,24.58-22.41,16.28l-66.45-48.28-66.45,48.28c-11.42,8.29-26.77-2.87-22.41-16.28l25.38-78.11-66.45-48.28c-11.42-8.29-5.55-26.35,8.56-26.35h82.13s25.38-78.11,25.38-78.11c4.36-13.42,23.35-13.42,27.71,0Z"/>
</svg>